<svg viewBox="0 0 23 23" fill="none" xmlns="http://www.w3.org/2000/svg">
<path d="M20.9336 7.90647H17.25V1.61867C17.25 1.0541 16.9633 0.539839 16.483 0.242999C16.0028 -0.0537953 15.4146 -0.0802988 14.9096 0.172203C14.9031 0.175438 14.8968 0.178762 14.8904 0.182176L1.55847 7.35708C0.597191 7.87444 0 8.87403 0 9.96566V9.97285V10.4221V20.9336C0 22.073 0.927008 23 2.06641 23H20.9336C22.073 23 23 22.073 23 20.9336V9.97285C23 8.83346 22.073 7.90647 20.9336 7.90647ZM15.5879 7.90647H4.46222C4.22886 7.90647 4.15029 7.59467 4.35576 7.48408L15.5587 1.45493C15.63 1.42214 15.6895 1.44253 15.7272 1.46584C15.7661 1.48988 15.8125 1.53592 15.8125 1.61871V7.68191C15.8125 7.80594 15.7119 7.90647 15.5879 7.90647ZM18.6875 16.8907C17.8949 16.8907 17.25 16.2459 17.25 15.4532C17.25 14.6606 17.8949 14.0158 18.6875 14.0158C19.4801 14.0158 20.125 14.6606 20.125 15.4532C20.125 16.2459 19.4801 16.8907 18.6875 16.8907Z" fill="#0A4DCE"/>
</svg>
