<svg viewBox="0 0 24 16" fill="none" xmlns="http://www.w3.org/2000/svg">
<path d="M24 3.77273V2.54545C24 1.13964 22.8248 0 21.375 0H2.625C1.17525 0 0 1.13964 0 2.54545V3.77273C0 3.89823 0.104953 4 0.234375 4H23.7656C23.895 4 24 3.89823 24 3.77273Z" fill="#0A4DCE"/>
<path d="M0 5.23707V13.3448C0 14.8112 1.17525 16 2.625 16H21.375C22.8248 16 24 14.8112 24 13.3448V5.23707C24 5.10616 23.895 5 23.7656 5H0.234375C0.104953 5 0 5.10616 0 5.23707ZM6 11.4483C6 11.8672 5.66419 12.2069 5.25 12.2069H4.5C4.08581 12.2069 3.75 11.8672 3.75 11.4483V10.6897C3.75 10.2707 4.08581 9.93103 4.5 9.93103H5.25C5.66419 9.93103 6 10.2707 6 10.6897V11.4483Z" fill="#0A4DCE"/>
</svg>
