<?xml version="1.0" encoding="utf-8"?>
<!-- Generator: Adobe Illustrator 24.0.2, SVG Export Plug-In . SVG Version: 6.00 Build 0)  -->
<svg version="1.1" id="Слой_1" xmlns="http://www.w3.org/2000/svg" xmlns:xlink="http://www.w3.org/1999/xlink" x="0px" y="0px"
	 viewBox="0 0 20 20" style="enable-background:new 0 0 20 20;" xml:space="preserve">
<style type="text/css">
	.st0{fill:#2CD172;}
	.st1{fill:#FFFFFF;filter:url(#Adobe_OpacityMaskFilter);}
	.st2{mask:url(#path-1-outside-1_1_);fill:none;stroke:#2CD172;stroke-width:0.4;}
</style>
<path class="st0" d="M10,1.8C10,1.8,9.9,1.8,10,1.8c-1.8,0-3.5,0.5-4.9,1.4c0,0-0.1,0-0.1,0.1C3.5,4.1,2.3,5.3,1.5,6.8
	c0,0,0,0.1-0.1,0.1c-0.7,1.3-1.1,2.9-1.1,4.5c0,0.1,0,0.1,0,0.2c0,1.8,0.5,3.3,1.3,4.8c0.1,0.2,0.3,0.2,0.5,0.2
	c0.2-0.1,0.3-0.2,0.3-0.4l0,0.3L4,15.4c0.1-0.1,0.2-0.2,0.2-0.4c0-0.2-0.1-0.3-0.2-0.4c-0.1-0.1-0.3-0.1-0.4,0l-1.4,0.8
	c-0.6-1.1-1-2.3-1-3.6h1.7c0.2,0,0.3-0.1,0.4-0.2c0.1-0.1,0.1-0.3,0-0.4C3.1,11.1,3,11,2.8,11H1.2C1.2,9.8,1.5,8.7,2,7.6
	C2.3,7.8,2.7,8,3.5,8.4c0.1,0.1,0.3,0.1,0.4,0c0.1-0.1,0.2-0.2,0.2-0.4c0-0.2-0.1-0.3-0.2-0.4C3.1,7.2,2.7,7,2.4,6.9
	C3.1,5.8,4,4.8,5.1,4.1L6,5.6C6,5.7,6.2,5.8,6.3,5.8c0.2,0,0.3-0.1,0.4-0.2c0.1-0.1,0.1-0.3,0-0.4L5.8,3.7c1.1-0.6,2.4-1,3.8-1v1.7
	c0,0.2,0.1,0.3,0.2,0.4c0.1,0.1,0.3,0.1,0.4,0c0.1-0.1,0.2-0.2,0.2-0.4V2.6c1.2,0.1,2.4,0.4,3.4,0.9L13,5C13,5.1,13,5.3,13,5.4
	c0.1,0.1,0.2,0.2,0.4,0.2c0.2,0,0.3-0.1,0.4-0.2l0.8-1.5c1.1,0.7,2.1,1.6,2.8,2.7l-1.4,0.9c-0.1,0.1-0.2,0.2-0.2,0.4
	c0,0.2,0.1,0.3,0.2,0.4c0.1,0.1,0.3,0.1,0.4,0l1.4-0.9c0.6,1.1,1,2.4,1,3.8h-1.7c-0.2,0-0.3,0.1-0.4,0.2c-0.1,0.1-0.1,0.3,0,0.4
	c0.1,0.1,0.2,0.2,0.4,0.2h1.7c-0.1,1.3-0.4,2.5-1,3.6l-1.4-0.8c-0.1-0.1-0.3-0.1-0.4,0c-0.1,0.1-0.2,0.2-0.2,0.4
	c0,0.2,0.1,0.3,0.2,0.4l1.6,0.9l0-0.3c0,0.2,0.1,0.4,0.3,0.4c0.2,0.1,0.4,0,0.5-0.2c0.9-1.4,1.3-3,1.3-4.8c0-0.1,0-0.1,0-0.2
	c0-1.8-0.5-3.4-1.4-4.9c0,0,0-0.1,0-0.1c0,0,0,0,0,0c0,0,0,0,0,0C17.4,5,16.2,3.8,14.7,3c0,0-0.1,0-0.1-0.1
	C13.2,2.2,11.7,1.8,10,1.8C10.1,1.8,10,1.8,10,1.8z M14.9,8.2c-0.1,0-0.2,0-0.2,0.1l-3.8,2.3c-0.2-0.2-0.5-0.3-0.8-0.3
	c-0.7,0-1.3,0.6-1.3,1.3c0,0.7,0.6,1.3,1.3,1.3c0.7,0,1.3-0.6,1.3-1.3c0-0.1,0-0.2,0-0.2L15.1,9c0.2-0.1,0.2-0.3,0.2-0.5
	C15.2,8.3,15.1,8.2,14.9,8.2z M10,11c0.1,0,0.2,0.1,0.3,0.2c0,0,0,0.1,0.1,0.1c0,0,0,0.1,0,0.1c0,0.2-0.2,0.4-0.4,0.4
	c-0.2,0-0.4-0.2-0.4-0.4C9.6,11.2,9.8,11,10,11z M7.5,14.8c-0.2,0-0.3,0.1-0.4,0.2c-0.1,0.1-0.1,0.3,0,0.4c0.1,0.1,0.2,0.2,0.4,0.2
	h5.1c0.2,0,0.3-0.1,0.4-0.2c0.1-0.1,0.1-0.3,0-0.4c-0.1-0.1-0.2-0.2-0.4-0.2H7.5z"/>
<defs>
	<filter id="Adobe_OpacityMaskFilter" filterUnits="userSpaceOnUse" x="0.1" y="1.6" width="19.8" height="15.2">
		<feColorMatrix  type="matrix" values="1 0 0 0 0  0 1 0 0 0  0 0 1 0 0  0 0 0 1 0"/>
	</filter>
</defs>
<mask maskUnits="userSpaceOnUse" x="0.1" y="1.6" width="19.8" height="15.2" id="path-1-outside-1_1_">
	<rect x="-0.7" y="0.8" class="st1" width="21" height="16"/>
	<path d="M10,1.8C10,1.8,9.9,1.8,10,1.8c-1.8,0-3.5,0.5-4.9,1.4c0,0-0.1,0-0.1,0.1C3.5,4.1,2.3,5.3,1.5,6.8c0,0,0,0.1-0.1,0.1
		c-0.7,1.3-1.1,2.9-1.1,4.5c0,0.1,0,0.1,0,0.2c0,1.8,0.5,3.3,1.3,4.8c0.1,0.2,0.3,0.2,0.5,0.2c0.2-0.1,0.3-0.2,0.3-0.4l0,0.3L4,15.4
		c0.1-0.1,0.2-0.2,0.2-0.4c0-0.2-0.1-0.3-0.2-0.4c-0.1-0.1-0.3-0.1-0.4,0l-1.4,0.8c-0.6-1.1-1-2.3-1-3.6h1.7c0.2,0,0.3-0.1,0.4-0.2
		c0.1-0.1,0.1-0.3,0-0.4C3.1,11.1,3,11,2.8,11H1.2C1.2,9.8,1.5,8.7,2,7.6C2.3,7.8,2.7,8,3.5,8.4c0.1,0.1,0.3,0.1,0.4,0
		c0.1-0.1,0.2-0.2,0.2-0.4c0-0.2-0.1-0.3-0.2-0.4C3.1,7.2,2.7,7,2.4,6.9C3.1,5.8,4,4.8,5.1,4.1L6,5.6C6,5.7,6.2,5.8,6.3,5.8
		c0.2,0,0.3-0.1,0.4-0.2c0.1-0.1,0.1-0.3,0-0.4L5.8,3.7c1.1-0.6,2.4-1,3.8-1v1.7c0,0.2,0.1,0.3,0.2,0.4c0.1,0.1,0.3,0.1,0.4,0
		c0.1-0.1,0.2-0.2,0.2-0.4V2.6c1.2,0.1,2.4,0.4,3.4,0.9L13,5C13,5.1,13,5.3,13,5.4c0.1,0.1,0.2,0.2,0.4,0.2c0.2,0,0.3-0.1,0.4-0.2
		l0.8-1.5c1.1,0.7,2.1,1.6,2.8,2.7l-1.4,0.9c-0.1,0.1-0.2,0.2-0.2,0.4c0,0.2,0.1,0.3,0.2,0.4c0.1,0.1,0.3,0.1,0.4,0l1.4-0.9
		c0.6,1.1,1,2.4,1,3.8h-1.7c-0.2,0-0.3,0.1-0.4,0.2c-0.1,0.1-0.1,0.3,0,0.4c0.1,0.1,0.2,0.2,0.4,0.2h1.7c-0.1,1.3-0.4,2.5-1,3.6
		l-1.4-0.8c-0.1-0.1-0.3-0.1-0.4,0c-0.1,0.1-0.2,0.2-0.2,0.4c0,0.2,0.1,0.3,0.2,0.4l1.6,0.9l0-0.3c0,0.2,0.1,0.4,0.3,0.4
		c0.2,0.1,0.4,0,0.5-0.2c0.9-1.4,1.3-3,1.3-4.8c0-0.1,0-0.1,0-0.2c0-1.8-0.5-3.4-1.4-4.9c0,0,0-0.1,0-0.1c0,0,0,0,0,0c0,0,0,0,0,0
		C17.4,5,16.2,3.8,14.7,3c0,0-0.1,0-0.1-0.1C13.2,2.2,11.7,1.8,10,1.8C10.1,1.8,10,1.8,10,1.8z M14.9,8.2c-0.1,0-0.2,0-0.2,0.1
		l-3.8,2.3c-0.2-0.2-0.5-0.3-0.8-0.3c-0.7,0-1.3,0.6-1.3,1.3c0,0.7,0.6,1.3,1.3,1.3c0.7,0,1.3-0.6,1.3-1.3c0-0.1,0-0.2,0-0.2L15.1,9
		c0.2-0.1,0.2-0.3,0.2-0.5C15.2,8.3,15.1,8.2,14.9,8.2z M10,11c0.1,0,0.2,0.1,0.3,0.2c0,0,0,0.1,0.1,0.1c0,0,0,0.1,0,0.1
		c0,0.2-0.2,0.4-0.4,0.4c-0.2,0-0.4-0.2-0.4-0.4C9.6,11.2,9.8,11,10,11z M7.5,14.8c-0.2,0-0.3,0.1-0.4,0.2c-0.1,0.1-0.1,0.3,0,0.4
		c0.1,0.1,0.2,0.2,0.4,0.2h5.1c0.2,0,0.3-0.1,0.4-0.2c0.1-0.1,0.1-0.3,0-0.4c-0.1-0.1-0.2-0.2-0.4-0.2H7.5z"/>
</mask>
<path class="st2" d="M10,1.8C10,1.8,9.9,1.8,10,1.8c-1.8,0-3.5,0.5-4.9,1.4c0,0-0.1,0-0.1,0.1C3.5,4.1,2.3,5.3,1.5,6.8
	c0,0,0,0.1-0.1,0.1c-0.7,1.3-1.1,2.9-1.1,4.5c0,0.1,0,0.1,0,0.2c0,1.8,0.5,3.3,1.3,4.8c0.1,0.2,0.3,0.2,0.5,0.2
	c0.2-0.1,0.3-0.2,0.3-0.4l0,0.3L4,15.4c0.1-0.1,0.2-0.2,0.2-0.4c0-0.2-0.1-0.3-0.2-0.4c-0.1-0.1-0.3-0.1-0.4,0l-1.4,0.8
	c-0.6-1.1-1-2.3-1-3.6h1.7c0.2,0,0.3-0.1,0.4-0.2c0.1-0.1,0.1-0.3,0-0.4C3.1,11.1,3,11,2.8,11H1.2C1.2,9.8,1.5,8.7,2,7.6
	C2.3,7.8,2.7,8,3.5,8.4c0.1,0.1,0.3,0.1,0.4,0c0.1-0.1,0.2-0.2,0.2-0.4c0-0.2-0.1-0.3-0.2-0.4C3.1,7.2,2.7,7,2.4,6.9
	C3.1,5.8,4,4.8,5.1,4.1L6,5.6C6,5.7,6.2,5.8,6.3,5.8c0.2,0,0.3-0.1,0.4-0.2c0.1-0.1,0.1-0.3,0-0.4L5.8,3.7c1.1-0.6,2.4-1,3.8-1v1.7
	c0,0.2,0.1,0.3,0.2,0.4c0.1,0.1,0.3,0.1,0.4,0c0.1-0.1,0.2-0.2,0.2-0.4V2.6c1.2,0.1,2.4,0.4,3.4,0.9L13,5C13,5.1,13,5.3,13,5.4
	c0.1,0.1,0.2,0.2,0.4,0.2c0.2,0,0.3-0.1,0.4-0.2l0.8-1.5c1.1,0.7,2.1,1.6,2.8,2.7l-1.4,0.9c-0.1,0.1-0.2,0.2-0.2,0.4
	c0,0.2,0.1,0.3,0.2,0.4c0.1,0.1,0.3,0.1,0.4,0l1.4-0.9c0.6,1.1,1,2.4,1,3.8h-1.7c-0.2,0-0.3,0.1-0.4,0.2c-0.1,0.1-0.1,0.3,0,0.4
	c0.1,0.1,0.2,0.2,0.4,0.2h1.7c-0.1,1.3-0.4,2.5-1,3.6l-1.4-0.8c-0.1-0.1-0.3-0.1-0.4,0c-0.1,0.1-0.2,0.2-0.2,0.4
	c0,0.2,0.1,0.3,0.2,0.4l1.6,0.9l0-0.3c0,0.2,0.1,0.4,0.3,0.4c0.2,0.1,0.4,0,0.5-0.2c0.9-1.4,1.3-3,1.3-4.8c0-0.1,0-0.1,0-0.2
	c0-1.8-0.5-3.4-1.4-4.9c0,0,0-0.1,0-0.1c0,0,0,0,0,0c0,0,0,0,0,0C17.4,5,16.2,3.8,14.7,3c0,0-0.1,0-0.1-0.1
	C13.2,2.2,11.7,1.8,10,1.8C10.1,1.8,10,1.8,10,1.8z M14.9,8.2c-0.1,0-0.2,0-0.2,0.1l-3.8,2.3c-0.2-0.2-0.5-0.3-0.8-0.3
	c-0.7,0-1.3,0.6-1.3,1.3c0,0.7,0.6,1.3,1.3,1.3c0.7,0,1.3-0.6,1.3-1.3c0-0.1,0-0.2,0-0.2L15.1,9c0.2-0.1,0.2-0.3,0.2-0.5
	C15.2,8.3,15.1,8.2,14.9,8.2z M10,11c0.1,0,0.2,0.1,0.3,0.2c0,0,0,0.1,0.1,0.1c0,0,0,0.1,0,0.1c0,0.2-0.2,0.4-0.4,0.4
	c-0.2,0-0.4-0.2-0.4-0.4C9.6,11.2,9.8,11,10,11z M7.5,14.8c-0.2,0-0.3,0.1-0.4,0.2c-0.1,0.1-0.1,0.3,0,0.4c0.1,0.1,0.2,0.2,0.4,0.2
	h5.1c0.2,0,0.3-0.1,0.4-0.2c0.1-0.1,0.1-0.3,0-0.4c-0.1-0.1-0.2-0.2-0.4-0.2H7.5z"/>
</svg>
