<?xml version="1.0" encoding="utf-8"?>
<!-- Generator: Adobe Illustrator 24.0.2, SVG Export Plug-In . SVG Version: 6.00 Build 0)  -->
<svg version="1.1" id="Слой_1" xmlns="http://www.w3.org/2000/svg" xmlns:xlink="http://www.w3.org/1999/xlink" x="0px" y="0px"
	 viewBox="0 0 20 20" style="enable-background:new 0 0 20 20;" xml:space="preserve">
<style type="text/css">
	.st0{fill:#2CD172;}
</style>
<path class="st0" d="M8.6,1.9v1.4h2.1v1.4h1.4V3.3h2.1V1.9H8.6z M6.8,5.4L6.5,5.7L5.3,7.6H2.9V14h1.8l1.9,1.9l0.2,0.2h7l0.2-0.2
	l2.9-2.9l0.2-0.2V9.7h0.7V8.3h-0.7V5.4H6.8z M18.6,6.1v5.7H20V6.1H18.6z M7.5,6.9h8.2v5.4l-2.5,2.5H7.5l-1.9-1.9l-0.2-0.2h-1V9h1.8
	l0.2-0.3L7.5,6.9z M0,8.3v4.3h1.4v-1.4h0.7V9.7H1.4V8.3H0z M10.7,8.3l-1.4,2.8l1.4,0.6V14l1.4-2.9l-1.4-0.6V8.3z"/>
</svg>
