<?xml version="1.0" encoding="utf-8"?>
<!-- Generator: Adobe Illustrator 24.0.2, SVG Export Plug-In . SVG Version: 6.00 Build 0)  -->
<svg version="1.1" id="Слой_1" xmlns="http://www.w3.org/2000/svg" xmlns:xlink="http://www.w3.org/1999/xlink" x="0px" y="0px"
	 viewBox="0 0 20 20" style="enable-background:new 0 0 20 20;" xml:space="preserve">
<style type="text/css">
	.st0{fill:#00FF00;}
</style>
<path class="st0" d="M10.8,9.8L10.8,9.8c0.2,0.5,0.4,1,0.6,1.4c0.1,0.2,0.2,0.4,0.2,0.6c0.1,0.2,0.1,0.3,0.1,0.4
	c0,0.9-0.7,1.5-1.4,1.5c-0.8,0-1.4-0.6-1.4-1.5c0-0.1,0-0.2,0.1-0.4c0.1-0.2,0.1-0.4,0.2-0.6c0.2-0.4,0.4-0.9,0.7-1.4
	c0.2-0.3,0.2-0.4,0.3-0.5c0,0,0-0.1,0.1-0.1c0,0,0,0.1,0.1,0.1C10.4,9.4,10.5,9.5,10.8,9.8L10.8,9.8z M10.8,9.8
	c-0.2-0.3-0.2-0.4-0.3-0.5c0,0-0.1-0.1-0.1-0.1L9.8,9.8c-0.5,0.9-1,2-1,2.4c0,0.9,0.7,1.6,1.5,1.6c0.8,0,1.5-0.7,1.5-1.6
	C11.8,11.7,11.3,10.6,10.8,9.8z M9.1,0L9.1,0L9.1,0L2.6,6.6l0,0v0v11.2c0,1.2,1,2.2,2.2,2.2h11.1c1.2,0,2.2-1,2.2-2.2V2.2
	C18,1,17,0,15.8,0H9.1z M4.5,1L4.5,1H4.3l-3,3L1.2,4.1l0.1,0.1l1.1,1.1l0.1,0.1l0.1-0.1l3-3l0.1-0.1L5.6,2.1L4.5,1z M13.2,4.7
	L13.2,4.7L13.2,4.7l2.9-2.9c0.1,0.1,0.2,0.2,0.2,0.3v15.7c0,0.3-0.2,0.4-0.4,0.4H4.7c-0.2,0-0.4-0.2-0.4-0.4V7.3l2.5-2.6H13.2z
	 M10.4,6.4l-0.1-0.1l-0.1,0.1L9.6,7.2l0,0l0.1,0.1h0L9.6,7.2l0,0l0,0l0,0l0,0l0,0l0,0c0,0,0,0.1-0.1,0.1C9.4,7.4,9.3,7.5,9.2,7.7
	C9,8,8.7,8.4,8.4,8.9l0,0c-0.6,1-1.3,2.1-1.3,3.3c0,1.8,1.4,3.3,3.1,3.3c1.8,0,3.1-1.5,3.1-3.3c0-1.2-0.7-2.3-1.3-3.3l0,0
	c-0.3-0.5-0.6-0.9-0.8-1.2c-0.1-0.2-0.2-0.3-0.3-0.4c0,0-0.1-0.1-0.1-0.1l0,0l0,0l0,0l0,0l0,0l0,0l-0.1,0.1L11,7.2l0,0L10.4,6.4z
	 M9.8,1.7h4L12.5,3H8.5L9.8,1.7z"/>
</svg>
