<?xml version="1.0" encoding="utf-8"?>
<!-- Generator: Adobe Illustrator 24.0.2, SVG Export Plug-In . SVG Version: 6.00 Build 0)  -->
<svg version="1.1" id="Слой_1" xmlns="http://www.w3.org/2000/svg" xmlns:xlink="http://www.w3.org/1999/xlink" x="0px" y="0px"
	 viewBox="0 0 20 20" style="enable-background:new 0 0 20 20;" xml:space="preserve">
<style type="text/css">
	.st0{fill:#EDC13C;}
</style>
<path class="st0" d="M3.4,0v1.5h2.5C5.4,1.9,4.9,2.4,4.5,3H1.9v1.5h1.9C3.6,5,3.5,5.5,3.4,6H1.1v1.5h2.3c0.1,0.5,0.2,1,0.4,1.5h-2
	v1.5h2.6c0.2,0.5,0.5,1,0.7,1.5H3.4v1.5H6c0.2,0.3,0.3,0.6,0.5,0.9c1.5,2.6,3,4.8,3,4.8l0.6,0.9l0.6-0.9c0,0,1.5-2.2,3-4.8
	c0.8-1.3,1.5-2.7,2.1-4c0.6-1.3,1-2.5,1-3.6c0-3.7-3-6.7-6.8-6.7H3.4z M10.1,1.5c2.9,0,5.3,2.3,5.3,5.2c0,0.6-0.3,1.7-0.9,3
	c-0.5,1.2-1.3,2.6-2,3.9c-1.2,2-1.9,3.1-2.4,3.7c-0.4-0.6-1.2-1.7-2.4-3.7c-0.7-1.3-1.5-2.6-2-3.9c-0.5-1.2-0.9-2.4-0.9-3
	C4.9,3.8,7.2,1.5,10.1,1.5z M10.1,5.2c-0.8,0-1.5,0.7-1.5,1.5c0,0.8,0.7,1.5,1.5,1.5c0.8,0,1.5-0.7,1.5-1.5
	C11.6,5.9,11,5.2,10.1,5.2z"/>
</svg>
