<?xml version="1.0" encoding="utf-8"?>
<!-- Generator: Adobe Illustrator 24.0.2, SVG Export Plug-In . SVG Version: 6.00 Build 0)  -->
<svg version="1.1" id="Слой_1" xmlns="http://www.w3.org/2000/svg" xmlns:xlink="http://www.w3.org/1999/xlink" x="0px" y="0px"
	 viewBox="0 0 20 20" style="enable-background:new 0 0 20 20;" xml:space="preserve">
<style type="text/css">
	.st0{fill:#E74C3C;}
</style>
<path class="st0" d="M13.2,20l1.1-1.1L9,13.5c-0.5,0.4-0.9,0.7-1.3,0.9L13.2,20z M11,14.4 M14.4,7.5c-0.3,0.4-0.6,0.9-0.9,1.3
	l5.2,5.5l1.1-1.1L14.4,7.5z M11.9,10.8c-0.2,0.2-0.3,0.3-0.5,0.5c-0.2,0.2-0.4,0.4-0.6,0.6l5.1,5.2L17,16L11.9,10.8z M13.4,3.1
	C12,1.7,9.9,0.6,7.7,0.2S3.1,0,1.6,1.6C0,3.1-0.2,5.5,0.2,7.7s1.5,4.3,2.9,5.7c0.4,0.4,1,0.6,1.6,0.5c0.5,0,1.1-0.2,1.7-0.5
	c1.1-0.6,2.5-1.6,3.9-3.1c1.5-1.5,2.5-2.8,3.1-3.9c0.3-0.6,0.5-1.1,0.5-1.7C13.9,4.1,13.8,3.5,13.4,3.1z M12.2,4.2
	c0,0,0.1,0.1,0,0.3c0,0.2-0.1,0.6-0.4,1C11.3,6.4,10.4,7.6,9,9s-2.6,2.4-3.5,2.8c-0.5,0.2-0.8,0.3-1,0.4c-0.2,0-0.2,0-0.3,0
	c-1.1-1.1-2.1-3-2.5-4.8c-0.3-1.9,0-3.6,1-4.7c1.1-1.1,2.8-1.3,4.7-0.9C9.2,2.2,11.1,3.2,12.2,4.2z"/>
</svg>
