<?xml version="1.0" encoding="utf-8"?>
<!-- Generator: Adobe Illustrator 24.0.2, SVG Export Plug-In . SVG Version: 6.00 Build 0)  -->
<svg version="1.1" id="Слой_1" xmlns="http://www.w3.org/2000/svg" xmlns:xlink="http://www.w3.org/1999/xlink" x="0px" y="0px"
	 viewBox="0 0 20 20" style="enable-background:new 0 0 20 20;" xml:space="preserve">
<style type="text/css">
	.st0{fill:#E74C3C;}
</style>
<path class="st0" d="M19.6,8.3l-1.5,0.5c0,0,0.1,0.2,0,0.7c0,0.3-0.2,0.8-0.5,1.2l-3.2-3.2c-0.3,0.4-0.6,0.9-0.9,1.3l3,3
	c-0.6,0.4-1.4,0.8-2.2,1.2L12,10.7c-0.2,0.2-0.4,0.4-0.6,0.6c-0.2,0.2-0.4,0.4-0.6,0.6l1.8,1.8c-0.9,0.3-1.7,0.7-2.3,1.1L9,13.5
	c-0.5,0.4-0.9,0.7-1.3,0.9L9.2,16c-0.6,0.8-0.8,1.6-0.9,2.2c-0.1,0.8,0.1,1.4,0.1,1.4l1.5-0.5c0,0-0.1-0.2,0-0.7
	c0-0.3,0.2-0.8,0.5-1.2l2.8,2.8l1.1-1.1l-2.8-2.8c0.6-0.3,1.4-0.7,2.3-1.1l2.1,2.1L17,16l-1.7-1.7c0.8-0.4,1.5-0.8,2.2-1.2l1.2,1.2
	l1.1-1.1l-1-1.2c0.6-0.8,0.8-1.6,0.9-2.2C19.8,8.9,19.6,8.3,19.6,8.3z M13.4,3.1C12,1.7,9.9,0.6,7.7,0.2S3.1,0,1.6,1.6
	C0,3.1-0.2,5.5,0.2,7.7s1.5,4.3,2.9,5.7c0.4,0.4,1,0.6,1.6,0.5c0.5,0,1.1-0.2,1.7-0.5c1.1-0.6,2.5-1.6,3.9-3.1
	c1.5-1.5,2.5-2.8,3.1-3.9c0.3-0.6,0.5-1.1,0.5-1.7C13.9,4.1,13.8,3.5,13.4,3.1z M12.2,4.2c0,0,0.1,0.1,0,0.3c0,0.2-0.1,0.6-0.4,1
	C11.3,6.4,10.4,7.6,9,9s-2.6,2.4-3.5,2.8c-0.5,0.2-0.8,0.3-1,0.4c-0.2,0-0.2,0-0.3,0c-1.1-1.1-2.1-3-2.5-4.8c-0.3-1.9,0-3.6,1-4.7
	c1.1-1.1,2.8-1.3,4.7-0.9C9.2,2.2,11.1,3.2,12.2,4.2z"/>
</svg>
