<svg viewBox="0 0 95 94" fill="none" xmlns="http://www.w3.org/2000/svg">
<path d="M46.6993 88.4395C68.8251 88.4395 86.7615 70.503 86.7615 48.3773C86.7615 26.2516 68.8251 8.31519 46.6993 8.31519C24.5736 8.31519 6.63721 26.2516 6.63721 48.3773C6.63721 70.503 24.5736 88.4395 46.6993 88.4395Z" stroke="#FFFFFF" stroke-width="3" stroke-linecap="round" stroke-linejoin="round"/>
<path d="M35.0405 36.368C35.9824 33.6905 37.8415 31.4328 40.2885 29.9947C42.7355 28.5565 45.6125 28.0308 48.41 28.5107C51.2074 28.9905 53.7448 30.4449 55.5727 32.6163C57.4006 34.7877 58.401 37.5359 58.3967 40.3742C58.3967 48.3866 46.3781 52.3929 46.3781 52.3929V60.4101" stroke="#FFFFFF" stroke-width="3" stroke-linecap="round" stroke-linejoin="round"/>
<path d="M46.6997 68.417H46.74" stroke="#FFFFFF" stroke-width="3" stroke-linecap="round" stroke-linejoin="round"/>
</svg>
