<?xml version="1.0" encoding="utf-8"?>
<!-- Generator: Adobe Illustrator 24.0.2, SVG Export Plug-In . SVG Version: 6.00 Build 0)  -->
<svg version="1.1" id="Слой_1" xmlns="http://www.w3.org/2000/svg" xmlns:xlink="http://www.w3.org/1999/xlink" x="0px" y="0px"
	 viewBox="0 0 20 20" style="enable-background:new 0 0 20 20;" xml:space="preserve">
<style type="text/css">
	.st0{fill:#2CD172;}
</style>
<path class="st0" d="M10,0C7.1,0,4.7,2.5,4.7,5.5c0,1.8,0.8,3.3,2.1,4.3c-0.6,0.3-1.1,0.6-1.6,0.9L2,8.4v2.2L3.9,12
	C2.7,13.4,2,15.3,2,17.3V20h1.8v-2.7c0-1.6,0.6-3.1,1.6-4.2l9.5,7H18v-2.7c0-3.3-2-6.2-4.8-7.5c1.3-1,2.1-2.6,2.1-4.3
	C15.3,2.5,12.9,0,10,0z M10,1.8c2,0,3.6,1.6,3.6,3.6c0,2-1.6,3.6-3.6,3.6S6.4,7.5,6.4,5.5C6.4,3.4,8,1.8,10,1.8z M10,10.9
	c3.5,0,6.2,2.8,6.2,6.4v1.5l-9.5-7C7.7,11.3,8.8,10.9,10,10.9z"/>
</svg>
