<?xml version="1.0" encoding="utf-8"?>
<!-- Generator: Adobe Illustrator 24.0.2, SVG Export Plug-In . SVG Version: 6.00 Build 0)  -->
<svg version="1.1" id="Слой_1" xmlns="http://www.w3.org/2000/svg" xmlns:xlink="http://www.w3.org/1999/xlink" x="0px" y="0px"
	 viewBox="0 0 79 78" style="enable-background:new 0 0 79 78;" xml:space="preserve">
<style type="text/css">
	.st0{clip-path:url(#SVGID_2_);}
	.st1{fill:none;stroke:#FFFFFF;stroke-width:3;stroke-linecap:round;stroke-linejoin:round;}
</style>
<g>
	<g>
		<defs>
			<rect id="SVGID_1_" x="0.1" y="0.1" width="78" height="77"/>
		</defs>
		<clipPath id="SVGID_2_">
			<use xlink:href="#SVGID_1_"  style="overflow:visible;"/>
		</clipPath>
		<g class="st0">
			<path class="st1" d="M39.5,49c5.5,0,10-4.5,10-10s-4.5-10-10-10s-10,4.5-10,10C29.5,44.5,33.9,49,39.5,49z"/>
			<path class="st1" d="M64.2,49c-0.4,1-0.6,2.1-0.4,3.2c0.2,1.1,0.7,2.1,1.5,2.9l0.2,0.2c0.6,0.6,1.1,1.4,1.4,2.2s0.5,1.7,0.5,2.6
				s-0.2,1.7-0.5,2.6c-0.3,0.8-0.8,1.5-1.4,2.2c-0.6,0.6-1.4,1.1-2.2,1.4s-1.7,0.5-2.6,0.5c-0.9,0-1.7-0.2-2.6-0.5
				c-0.8-0.3-1.5-0.8-2.2-1.4l-0.2-0.2C55,63.7,54,63.2,53,63c-1.1-0.2-2.2-0.1-3.2,0.4c-1,0.4-1.8,1.1-2.4,2
				c-0.6,0.9-0.9,1.9-0.9,3V69c0,1.8-0.7,3.5-2,4.7c-1.3,1.3-2.9,2-4.7,2s-3.5-0.7-4.7-2c-1.3-1.3-2-2.9-2-4.7v-0.3
				c0-1.1-0.4-2.2-1-3.1c-0.6-0.9-1.5-1.6-2.6-2c-1-0.4-2.1-0.6-3.2-0.4c-1.1,0.2-2.1,0.7-2.9,1.5L23.2,65c-0.6,0.6-1.4,1.1-2.2,1.4
				c-0.8,0.3-1.7,0.5-2.6,0.5s-1.7-0.2-2.6-0.5c-0.8-0.3-1.5-0.8-2.2-1.4c-0.6-0.6-1.1-1.4-1.4-2.2c-0.3-0.8-0.5-1.7-0.5-2.6
				c0-0.9,0.2-1.7,0.5-2.6c0.3-0.8,0.8-1.5,1.4-2.2l0.2-0.2c0.8-0.8,1.3-1.8,1.5-2.9c0.2-1.1,0.1-2.2-0.4-3.2c-0.4-1-1.1-1.8-2-2.4
				c-0.9-0.6-1.9-0.9-3-0.9H9.5c-1.8,0-3.5-0.7-4.7-2c-1.3-1.3-2-2.9-2-4.7s0.7-3.5,2-4.7c1.3-1.3,2.9-2,4.7-2h0.3
				c1.1,0,2.2-0.4,3.1-1s1.6-1.5,2-2.6c0.4-1,0.6-2.1,0.4-3.2c-0.2-1.1-0.7-2.1-1.5-2.9l-0.2-0.2c-0.6-0.6-1.1-1.4-1.4-2.2
				c-0.3-0.8-0.5-1.7-0.5-2.6s0.2-1.7,0.5-2.6c0.3-0.8,0.8-1.5,1.4-2.2c0.6-0.6,1.4-1.1,2.2-1.4c0.8-0.3,1.7-0.5,2.6-0.5
				s1.7,0.2,2.6,0.5c0.8,0.3,1.5,0.8,2.2,1.4l0.2,0.2C24,14.3,25,14.8,26,15c1.1,0.2,2.2,0.1,3.2-0.4h0.3c1-0.4,1.8-1.1,2.4-2
				s0.9-1.9,0.9-3V9c0-1.8,0.7-3.5,2-4.7c1.3-1.3,2.9-2,4.7-2s3.5,0.7,4.7,2c1.3,1.3,2,2.9,2,4.7v0.3c0,1.1,0.3,2.1,0.9,3
				c0.6,0.9,1.4,1.6,2.4,2s2.1,0.6,3.2,0.4c1.1-0.2,2.1-0.7,2.9-1.5l0.2-0.2c0.6-0.6,1.4-1.1,2.2-1.4c0.8-0.3,1.7-0.5,2.6-0.5
				s1.7,0.2,2.6,0.5c0.8,0.3,1.5,0.8,2.2,1.4c0.6,0.6,1.1,1.4,1.4,2.2s0.5,1.7,0.5,2.6s-0.2,1.7-0.5,2.6c-0.3,0.8-0.8,1.5-1.4,2.2
				L65,22.7c-0.8,0.8-1.3,1.8-1.5,2.9s-0.1,2.2,0.4,3.2V29c0.4,1,1.1,1.8,2,2.4s1.9,0.9,3,0.9h0.6c1.8,0,3.5,0.7,4.7,2
				c1.3,1.3,2,2.9,2,4.7s-0.7,3.5-2,4.7c-1.3,1.3-2.9,2-4.7,2h-0.3c-1.1,0-2.1,0.3-3,0.9C65.3,47.2,64.6,48,64.2,49L64.2,49z"/>
		</g>
	</g>
</g>
</svg>
