<svg viewBox="0 0 81 81" fill="none" xmlns="http://www.w3.org/2000/svg">
<path d="M30.0941 73.4281C31.935 73.4281 33.4274 71.9358 33.4274 70.0948C33.4274 68.2539 31.935 66.7615 30.0941 66.7615C28.2531 66.7615 26.7607 68.2539 26.7607 70.0948C26.7607 71.9358 28.2531 73.4281 30.0941 73.4281Z" stroke="#FFFFFF" stroke-width="3" stroke-linecap="round" stroke-linejoin="round"/>
<path d="M66.7611 73.4281C68.602 73.4281 70.0944 71.9358 70.0944 70.0948C70.0944 68.2539 68.602 66.7615 66.7611 66.7615C64.9201 66.7615 63.4277 68.2539 63.4277 70.0948C63.4277 71.9358 64.9201 73.4281 66.7611 73.4281Z" stroke="#FFFFFF" stroke-width="3" stroke-linecap="round" stroke-linejoin="round"/>
<path d="M3.42773 3.42798H16.7611L25.6944 48.0613C25.9992 49.596 26.8341 50.9745 28.0529 51.9556C29.2717 52.9368 30.7967 53.458 32.3611 53.428H64.7611C66.3254 53.458 67.8505 52.9368 69.0692 51.9556C70.288 50.9745 71.1229 49.596 71.4277 48.0613L76.7611 20.0946H20.0944" stroke="#FFFFFF" stroke-width="3" stroke-linecap="round" stroke-linejoin="round"/>
</svg>
