<svg viewBox="0 0 19 19" fill="none" xmlns="http://www.w3.org/2000/svg">
<g clip-path="url(#clip0)">
<path d="M14.2649 9.08667H3.76489C2.93647 9.08667 2.26489 9.75824 2.26489 10.5867V15.8367C2.26489 16.6651 2.93647 17.3367 3.76489 17.3367H14.2649C15.0933 17.3367 15.7649 16.6651 15.7649 15.8367V10.5867C15.7649 9.75824 15.0933 9.08667 14.2649 9.08667Z" stroke="white" stroke-width="1.5" stroke-linecap="round" stroke-linejoin="round"/>
<path d="M5.26489 9.08679V6.08679C5.26396 5.15682 5.60861 4.25968 6.23192 3.56954C6.85524 2.87939 7.71277 2.44546 8.63802 2.352C9.56328 2.25854 10.4903 2.51221 11.239 3.06377C11.9877 3.61533 12.5048 4.42542 12.6899 5.33679" stroke="white" stroke-width="1.5" stroke-linecap="round" stroke-linejoin="round"/>
</g>
<defs>
<clipPath id="clip0">
<rect width="18" height="18" fill="white" transform="translate(0.0148926 0.83667)"/>
</clipPath>
</defs>
</svg>
