<?xml version="1.0" encoding="utf-8"?>
<!-- Generator: Adobe Illustrator 24.0.2, SVG Export Plug-In . SVG Version: 6.00 Build 0)  -->
<svg version="1.1" id="Слой_1" xmlns="http://www.w3.org/2000/svg" xmlns:xlink="http://www.w3.org/1999/xlink" x="0px" y="0px"
	 viewBox="0 0 20 20" style="enable-background:new 0 0 20 20;" xml:space="preserve">
<style type="text/css">
	.st0{fill:#E74C3C;}
</style>
<path class="st0" d="M16.9,3.1c-1.7-1.7-4-2.9-4-2.9L12.5,0l-0.4,0.2c0,0-1.9,1.1-4.6,3.6L2.4,3.8l0,1.5l3.5,0
	C5.8,5.4,5.8,5.5,5.6,5.6C5.3,6,4.9,6.4,4.6,6.7l0,0C4.5,6.8,4.4,6.9,4.3,7C4.1,7.2,3.9,7.5,3.7,7.7c-2.4,2.7-3.5,4.5-3.5,4.5
	L0,12.5l0.2,0.4c0,0,1.1,2.2,2.9,4c1.8,1.8,4,2.9,4,2.9L7.5,20l0.4-0.2c0,0,1.8-1.1,4.5-3.5c0.2-0.2,0.5-0.4,0.7-0.6
	c0.1-0.1,0.2-0.2,0.3-0.2l0,0c0.4-0.3,0.7-0.7,1.1-1c0.1-0.1,0.2-0.2,0.3-0.3l0,3.5l1.5,0l-0.1-5.2c2.5-2.7,3.6-4.6,3.6-4.6L20,7.5
	l-0.2-0.4C19.8,7.1,18.7,4.8,16.9,3.1z M15.9,4.1c1.3,1.3,2.1,2.7,2.4,3.2C18,7.7,17.2,9,15.4,11C15,10.4,14,8.7,12.7,7.3
	C11.3,6,9.6,5,9,4.6C11,2.8,12.3,2,12.7,1.8C13.2,2,14.6,2.9,15.9,4.1z M11.6,8.4c1.4,1.4,2.4,3.3,2.5,3.5c0,0,0,0.1,0,0.2
	c-0.1,0.2-0.2,0.6-0.8,1.2c-0.8,0.8-1.6,1.5-2.3,2.1c-0.1,0.1-0.1,0.1-0.2,0.1c-0.3,0.2-0.6,0.4-0.8,0.5c-0.2,0.1-0.3,0.1-0.4,0.1
	c-0.3-0.2-2-1.1-3.4-2.5c-1.4-1.4-2.3-3-2.5-3.4c0-0.1,0.1-0.2,0.1-0.4c0.1-0.2,0.3-0.5,0.5-0.9c0,0,0.1-0.1,0.1-0.1
	c0.6-0.7,1.3-1.4,2.1-2.3C7.2,6.2,7.7,6,7.9,5.9c0.2-0.1,0.2,0,0.2,0C8.4,6,10.2,7,11.6,8.4z M2.7,11.4c0.4,0.8,1.3,2.2,2.5,3.4
	c1.2,1.2,2.6,2.1,3.4,2.5c-0.6,0.5-1.1,0.8-1.3,0.9c-0.5-0.3-1.9-1.1-3.2-2.4c-1.3-1.3-2.1-2.7-2.4-3.2C1.9,12.5,2.2,12,2.7,11.4z"
	/>
</svg>
