<?xml version="1.0" encoding="utf-8"?>
<!-- Generator: Adobe Illustrator 24.0.2, SVG Export Plug-In . SVG Version: 6.00 Build 0)  -->
<svg version="1.1" id="Слой_1" xmlns="http://www.w3.org/2000/svg" xmlns:xlink="http://www.w3.org/1999/xlink" x="0px" y="0px"
	 viewBox="0 0 20 20" style="enable-background:new 0 0 20 20;" xml:space="preserve">
<style type="text/css">
	.st0{fill:#E74C3C;}
</style>
<path class="st0" d="M3.7,7.7c-2.4,2.7-3.5,4.5-3.5,4.5L0,12.5l0.2,0.4c0,0,1.1,2.2,2.9,4s4,2.9,4,2.9L7.5,20l0.4-0.2
	c0,0,1.8-1.1,4.5-3.5c2.3-2,3.8-3.8,3.8-3.8c2.5-2.7,3.6-4.6,3.6-4.6L20,7.5l-0.2-0.4c0,0-1.1-2.3-2.9-4c-1.7-1.7-4-2.9-4-2.9
	L12.5,0l-0.4,0.2c0,0-1.9,1.1-4.6,3.6C7.5,3.8,6.2,4.9,3.7,7.7z M15.9,4.1c1.3,1.3,2.1,2.7,2.4,3.2C18,7.7,17.2,9,15.4,11
	C15,10.4,14,8.7,12.7,7.3C11.3,6,9.6,5,9,4.6c2-1.8,3.3-2.6,3.7-2.8C13.2,2,14.6,2.9,15.9,4.1z M11.6,8.4c1.4,1.4,2.4,3.3,2.5,3.5
	c0,0,0,0.1,0,0.2c-0.1,0.2-0.2,0.6-0.8,1.2c-0.8,0.8-1.6,1.5-2.3,2.1c-0.1,0.1-0.1,0.1-0.2,0.1c-0.3,0.2-0.6,0.4-0.8,0.5
	s-0.3,0.1-0.4,0.1c-0.3-0.2-2-1.1-3.4-2.5s-2.3-3-2.5-3.4c0-0.1,0-0.2,0.1-0.4c0.1-0.2,0.3-0.5,0.5-0.9l0.1-0.1
	c0.5-0.5,1-1.1,1.5-1.7c0.4-0.4,0.9-0.8,1.4-1C7.6,6,7.8,6,7.9,5.9c0.2-0.1,0.2,0,0.2,0C8.4,6,10.2,7,11.6,8.4z M2.7,11.4
	c0.4,0.8,1.3,2.2,2.5,3.4s2.6,2.1,3.4,2.5c-0.6,0.5-1.1,0.8-1.3,0.9c-0.5-0.3-1.9-1.1-3.2-2.4S2,13.1,1.7,12.6
	C1.9,12.5,2.2,12,2.7,11.4z"/>
</svg>
