<svg width="368" height="349" viewBox="0 0 368 349" fill="none" xmlns="http://www.w3.org/2000/svg">
<path d="M183.77 228.491L120.509 349H246.53L183.77 228.491Z" fill="#243CE6"/>
<path d="M69.2739 349L183.77 130.906L168.173 101.343L149.272 65.5158L0 349H69.2739Z" fill="#243CE6"/>
<path d="M183.77 0L149.272 65.5158L168.173 101.343H236.988L183.77 0Z" fill="#FF0000"/>
<path d="M261.372 278.724H330.135L272.576 169.113H203.828L261.372 278.724Z" fill="#FF0000"/>
<path fill-rule="evenodd" clip-rule="evenodd" d="M298.266 349H367.039L330.135 278.724H261.372L298.266 349ZM203.828 169.113H272.576L236.988 101.343H168.173L183.77 130.906L203.828 169.113Z" fill="white"/>
<path d="M132.247 138.248C132.533 137.361 133.787 137.361 134.073 138.248L138.625 152.361C138.753 152.758 139.123 153.027 139.54 153.026L154.37 152.994C155.301 152.992 155.689 154.185 154.934 154.731L142.918 163.421C142.58 163.666 142.439 164.101 142.568 164.497L147.182 178.591C147.471 179.476 146.456 180.214 145.704 179.664L133.726 170.922C133.389 170.676 132.931 170.676 132.594 170.922L120.616 179.664C119.864 180.214 118.849 179.476 119.139 178.591L123.752 164.497C123.882 164.101 123.74 163.666 123.402 163.421L111.386 154.731C110.631 154.185 111.019 152.992 111.951 152.994L126.78 153.026C127.197 153.027 127.567 152.758 127.695 152.361L132.247 138.248Z" fill="white"/>
<path d="M93.9167 211.656C94.2027 210.769 95.4573 210.769 95.7433 211.656L100.295 225.769C100.423 226.166 100.793 226.435 101.21 226.434L116.04 226.402C116.971 226.4 117.359 227.593 116.604 228.139L104.588 236.829C104.25 237.074 104.108 237.509 104.238 237.905L108.852 251.999C109.141 252.884 108.126 253.622 107.374 253.072L95.3958 244.33C95.0587 244.084 94.6013 244.084 94.2643 244.33L82.2863 253.072C81.5337 253.621 80.5187 252.884 80.8085 251.999L85.4218 237.905C85.5516 237.509 85.4103 237.074 85.0722 236.829L73.056 228.139C72.3011 227.593 72.6888 226.4 73.6205 226.402L88.4497 226.434C88.867 226.435 89.237 226.166 89.3651 225.769L93.9167 211.656Z" fill="white"/>
<path d="M57.5886 281.055C57.8746 280.168 59.1292 280.168 59.4152 281.055L63.9669 295.168C64.0949 295.565 64.465 295.834 64.8822 295.833L79.7115 295.801C80.6432 295.799 81.0309 296.992 80.2759 297.538L68.2598 306.228C67.9216 306.473 67.7803 306.908 67.9101 307.304L72.5234 321.398C72.8133 322.283 71.7983 323.021 71.0457 322.471L59.0677 313.729C58.7306 313.483 58.2732 313.483 57.9362 313.729L45.9581 322.471C45.2055 323.021 44.1905 322.283 44.4804 321.398L49.0937 307.304C49.2235 306.908 49.0822 306.473 48.7441 306.228L36.7279 297.538C35.9729 296.992 36.3606 295.799 37.2924 295.801L52.1216 295.833C52.5389 295.834 52.9089 295.565 53.037 295.168L57.5886 281.055Z" fill="white"/>
<path d="M182.606 281.055C182.892 280.168 184.147 280.168 184.433 281.055L188.984 295.168C189.113 295.565 189.483 295.834 189.9 295.833L204.729 295.801C205.661 295.799 206.048 296.992 205.293 297.538L193.277 306.228C192.939 306.473 192.798 306.908 192.928 307.304L197.541 321.398C197.831 322.283 196.816 323.021 196.063 322.471L184.085 313.729C183.748 313.483 183.291 313.483 182.954 313.729L170.976 322.471C170.223 323.021 169.208 322.283 169.498 321.398L174.111 307.304C174.241 306.908 174.1 306.473 173.762 306.228L161.745 297.538C160.991 296.992 161.378 295.799 162.31 295.801L177.139 295.833C177.556 295.834 177.926 295.565 178.055 295.168L182.606 281.055Z" fill="white"/>
</svg>
