<svg width="552" height="503" viewBox="0 0 552 503" fill="none" xmlns="http://www.w3.org/2000/svg">
<path d="M626.908 171.5H621.57V176.873C621.57 180.528 619.662 176.873 619.662 176.873V172.648H615.846C614.437 172.648 615.846 175.324 615.846 175.324H608.98V177.62L610.881 179.528V182.584H603.636V185.64H608.213V225.777H606.304V213.94H604.016V215.848H600.199V211.264H587.961V212.785H586.44V208.201H569.653L567.745 210.109H559.372V208.56L557.464 206.652V194.428L555.943 192.9V189.463H550.599V184.534H520.454V188.351H505.195V157.03L502.906 154.741H536.48V150.925H517.024V144.813H512.44V152.833H502.526V144.045H500.23V152.066H483.042V155.044H487.619V158.481H491.055V155.044H499.068V186.365H478.845V166.501H474.268V160.009H475.409V142.088H472.36V139.412H470.452V142.468H467.015V140.56C467.015 139.856 466.255 139.792 466.255 139.792H465.107V142.088H462.818V138.264H459.805V136.736H448.355V133.3H443.778V135.215H439.962V139.44H433.857V142.116H410.584V106.971H484.985V103.155H438.821V97.4231H436.525V104.303H410.964V96.6626H406.035V104.683H375.123V107.359H380.052V109.647H382.721V107.359H406.761V141.736H389.974V160.832H392.262V163.888H388.037V166.177H391.501V171.909H395.318V174.585H392.649V219.27H390.741V217.362H378.911L377.39 218.89H367.469V221.566H348.006V225.791H339.992V222.354H331.219V225.03H302.982V272.772H297.645V275.828H294.589V277.736H279.71V212.039H274.781V209.75H269.063V211.658H257.233V207.433H219.406V208.954H221.314V211.63H208.343V237.987H199.57V213.926H155.687V207.814H152.257L145.385 200.934L137.759 208.56V122.653H132.034V111.527L130.506 109.999H67.9276V76.39L66.0193 74.4817H33.9732V69.8976H22.9039V74.862H9.14465V81.7345H11.8134L10.2854 83.2626V93.1982H-6.88196V215.806H-19.8525V141.708H-21.0003V139.412H-19.8525V108.859H-23.669V61.1098H-31.2739V48.5054L-33.1822 46.5971V44.6889H-31.2739V31.6971L-32.4217 30.5564H-66.3761L-68.2844 32.4647V44.6889H-66.3761V46.2168L-68.2844 48.1252V61.1098H-74.7697V108.859H-78.9946V114.203H-95.7747V122.991H-99.2109V94.7262H-153.755V77.918H-160.24V0.763611L-165.965 6.4884H-162.529V51.9416H-189.618L-214.418 62.6378L-223.227 109.978H-243.035V106.542H-244.943V109.978H-250.288V107.69H-253.724V105.049H-261.35L-264.026 107.725H-304.085V214.672H-315.915V229.185H-328.146V227.657H-331.963V229.572H-342.624V233.389H-359.03V258.978H-366.664V260.893H-369.691V166.149H-384.591V165.008H-413.976V166.916H-428.094V178.753H-450.986V203.962H-479.223V205.49H-476.547V207.786H-485.328V212.01H-486.469V213.926H-485.708V235.318H-494.862V239.142H-490.637V240.247H-494.862V260.492H-502.495V257.048H-508.6V259.344H-517.374V237.191H-513.558V234.896H-517.374V233.368H-513.558V231.093H-517.374V225.742H-536.837V221.157H-567.362V219.629H-569.27V156.96H-625.356V153.903H-626.885V156.96H-628.025V154.671H-629.173L-631.462 156.96H-653.593V244.472H-657.818V241.416H-667.324V242.184H-673.429V214.299H-674.957V242.184H-676.866V243.324H-680.302V244.472H-696.328V212.391H-703.574V210.095H-708.151V212.391H-712.735V210.482H-717.664V208.56H-726.086V210.856H-728.762L-730.663 212.764H-735.627V253.605H-780.919V583.854L627.394 584.819L626.908 171.5Z" fill="#1B1B1B"/>
</svg>
