<?xml version="1.0" encoding="utf-8"?>
<!-- Generator: Adobe Illustrator 24.0.2, SVG Export Plug-In . SVG Version: 6.00 Build 0)  -->
<svg version="1.1" id="Слой_1" xmlns="http://www.w3.org/2000/svg" xmlns:xlink="http://www.w3.org/1999/xlink" x="0px" y="0px"
	 viewBox="0 0 340 338" style="enable-background:new 0 0 340 338;" xml:space="preserve">
<style type="text/css">
	.st0{fill:#FFFFFF;}
</style>
<path class="st0" d="M170,0c-10.8,0-19.6,9.5-19.6,21.2c0,6,2.3,11.5,6,15.3c0.4,0.4,0.6,0.9,0.6,1.4v30.9c0,1,0.8,1.9,1.7,2
	c3.9,0.6,6.6,3.4,8.3,6.3c1,1.7,5.1,1.7,6.1,0c1.8-2.9,4.4-5.7,8.2-6.4c0.9-0.2,1.7-1,1.7-2V38c0-0.5,0.2-1,0.6-1.4
	c3.7-3.8,6-9.3,6-15.3C189.6,9.5,180.8,0,170,0z M109.5,14.1c-23.8,0-38.8,14.1-51.1,24.3S36,56.6,13.1,56.6H1.7
	c-1,0-1.7,0.8-1.7,1.9v17c0,0.4,0.1,0.7,0.3,1L2,79.5c15.4,26.8,47.8,47.3,100.8,47.7c1,0,1.8-0.8,1.8-1.9v-24.5
	c0-1-0.8-1.9-1.7-1.9c-30.2-0.3-47.6-8.1-60.1-17.7c-1.1-0.9-0.8-2.8,0.5-3.3c12.7-4.7,23.4-11,31.2-17.4
	c13.2-11,20.2-18.1,35.1-18.1c2.2,0,5.2,1.1,6.5,2.2c1.3,1.1,1.6,1.3,1.6,4c0,1.2-0.6,2.6-2.9,8c-2.1,5-4.2,15.3-0.7,24.4
	c0.4,1,1.4,1.3,2.3,0.9l20.2-10.7c0.9-0.5,1.1-0.9,1.6-1.8c0.1-0.2,0.2-0.5,0.4-0.8c1.2-2.9,5.3-9.9,5.3-19.9
	c0-11-5.1-20.8-11.9-26.5C125.3,16.4,117.3,14.1,109.5,14.1z M230.5,14.1c-7.8,0-15.7,2.3-22.5,8c-6.7,5.7-11.9,15.5-11.9,26.5
	c0,9.9,4.1,17,5.3,19.9c0.1,0.4,0.3,0.6,0.4,0.8c0.5,0.9,0.7,1.3,1.6,1.8l20.2,10.7c0.9,0.5,1.9,0.1,2.3-0.9
	c3.5-9.1,1.4-19.3-0.7-24.4c-2.2-5.4-2.9-6.7-2.9-8c0-2.7,0.7-2.9,2-4c1.3-1.1,3.9-2.2,6.1-2.2c14.9,0,22,7.1,35.1,18.1
	c7.7,6.4,18.5,12.7,31.2,17.4c1.3,0.5,1.6,2.4,0.5,3.3c-12.6,9.7-29.9,17.4-60.1,17.7c-1,0-1.7,0.8-1.7,1.9v24.5
	c0,1,0.8,1.9,1.8,1.9c53.1-0.4,85.5-20.9,100.8-47.7l1.8-3.1c0.2-0.3,0.3-0.6,0.3-1v-17c0-1-0.8-1.9-1.7-1.9h-11.3
	c-22.9,0-33.1-7.9-45.4-18.1C269.3,28.2,254.2,14.1,230.5,14.1z M143.8,84.4c-15.1,0-26.2,13.8-26.2,28.7c0,19.4,6.9,34.6,16.8,44.2
	c0.4,0.4,0.9,0.8,1.3,1.1c0.9,0.7,0.8,2.1-0.1,2.8c-9.9,7-18,20.7-18,37.1c0,15.9,5.8,29.2,13.9,38c3.3,3.6,6.8,6.7,10.4,9.3
	c0.9,0.7,1.1,2.2,0.3,3c-6.6,7.4-11.9,17.9-11.9,30.1c0,12.3,5.5,22.8,11.9,30.5c0.1,0.1,0.2,0.2,0.3,0.3c0.4,0.4,0,1.2-0.6,1.3
	c-0.4,0.1-0.5,0.5-0.4,0.9l5.5,24.7c0.2,1,1.2,1.6,2.1,1.3c3.3-1,11.2-3.7,20.1-8c0.5-0.2,1-0.2,1.4,0c8.9,4.3,16.7,6.9,20.1,8
	c0.9,0.3,1.9-0.3,2.1-1.3l5.5-24.7c0.1-0.4,0.1-0.8-0.4-0.9c-0.6-0.1-1-0.9-0.6-1.3c0.1-0.1,0.2-0.2,0.3-0.3
	c6.4-7.7,11.9-18.2,11.9-30.5c0-12.2-5.3-22.7-11.9-30.1c-0.8-0.9-0.7-2.4,0.3-3c3.6-2.6,7.1-5.7,10.4-9.3
	c8.1-8.8,13.9-22.1,13.9-38c0-16.5-8.1-30.1-18-37.1c-0.9-0.7-1-2.1-0.1-2.8c0.5-0.4,0.9-0.7,1.3-1.1c9.9-9.6,16.8-24.8,16.8-44.2
	c0-15-11.1-28.7-26.2-28.7c-8.1,0-14.9,4.5-19.2,9.7c-4.3,5.2-6.9,11.4-6.9,19c0-7.6-2.6-13.8-6.9-19
	C158.7,88.9,151.9,84.4,143.8,84.4z M146.8,122.9c-0.2-1.2,0.6-2.3,1.7-2.3h43c1.1,0,1.9,1.1,1.7,2.3c-1,5.4-2,10.8-4.9,13.6
	c-4,3.9-10.4,6.7-17.8,9.5c-0.4,0.1-0.8,0.1-1.1,0c-7.4-2.8-13.8-5.6-17.8-9.5C148.8,133.7,147.8,128.3,146.8,122.9z M169.5,176.9
	c0.4-0.1,0.7-0.1,1.1,0c8,2.8,15.1,5.4,19.1,8.2c4.8,3.4,6.5,4.8,6.5,13.3c0,9.1-2.3,13.5-6.5,18.1c-4.2,4.6-11.2,8.5-19.2,12.8
	c-0.3,0.2-0.5,0.2-0.8,0c-8-4.3-15-8.2-19.2-12.8c-4.2-4.6-6.5-9-6.5-18.1c0-8.5,1.7-9.8,6.5-13.3
	C154.4,182.3,161.5,179.8,169.5,176.9z M169.1,262.5c0.5-0.3,1.2-0.3,1.7,0c2.7,1.7,5.1,3.2,6.9,4.8c4.2,3.8,5.7,5.6,5.7,11.5
	c0,4.2-1.5,7.5-4.9,11.5c-2,2.4-4.6,4.9-7.6,7.2c-0.6,0.4-1.3,0.4-1.9,0c-3-2.3-5.6-4.8-7.6-7.2c-3.4-4-4.9-7.3-4.9-11.5
	c0-5.9,1.5-7.7,5.7-11.5C164,265.8,166.5,264.2,169.1,262.5z"/>
</svg>
