<?xml version="1.0" encoding="utf-8"?>
<!-- Generator: Adobe Illustrator 24.0.2, SVG Export Plug-In . SVG Version: 6.00 Build 0)  -->
<svg version="1.1" id="Слой_1" xmlns="http://www.w3.org/2000/svg" xmlns:xlink="http://www.w3.org/1999/xlink" x="0px" y="0px"
	 viewBox="0 0 340 338" style="enable-background:new 0 0 340 338;" xml:space="preserve">
<path d="M170,84.6c-5.4,0-9.8,4.7-9.8,10.6c0,3,1.1,5.7,3,7.6c0.2,0.2,0.3,0.4,0.3,0.7V119c0,0.5,0.4,0.9,0.8,1
	c1.9,0.3,3.3,1.7,4.1,3.1c0.5,0.8,2.5,0.8,3,0c0.9-1.4,2.2-2.8,4.1-3.2c0.4-0.1,0.8-0.5,0.8-1v-15.3c0-0.2,0.1-0.5,0.3-0.7
	c1.8-1.9,3-4.6,3-7.6C179.8,89.4,175.4,84.6,170,84.6z M139.8,91.7c-11.9,0-19.4,7-25.5,12.1c-6.1,5.1-11.2,9.1-22.6,9.1h-5.7
	c-0.5,0-0.8,0.4-0.8,0.9v8.5c0,0.2,0,0.3,0.1,0.5l0.8,1.5c7.7,13.4,23.9,23.6,50.4,23.8c0.5,0,0.9-0.4,0.9-0.9V135
	c0-0.5-0.4-0.9-0.8-0.9c-15.1-0.1-23.8-4-30-8.8c-0.5-0.4-0.4-1.4,0.2-1.6c6.3-2.3,11.7-5.5,15.6-8.7c6.6-5.5,10.1-9,17.5-9
	c1.1,0,2.6,0.5,3.2,1.1s0.8,0.6,0.8,2c0,0.6-0.3,1.3-1.4,4c-1,2.5-2.1,7.6-0.3,12.2c0.2,0.5,0.7,0.6,1.1,0.4l10.1-5.3
	c0.4-0.2,0.5-0.4,0.8-0.9c0-0.1,0.1-0.2,0.2-0.4c0.6-1.4,2.6-4.9,2.6-9.9c0-5.5-2.5-10.4-5.9-13.2C147.6,92.8,143.6,91.7,139.8,91.7
	z M200.2,91.7c-3.9,0-7.8,1.1-11.2,4c-3.3,2.8-5.9,7.7-5.9,13.2c0,4.9,2,8.5,2.6,9.9c0,0.2,0.1,0.3,0.2,0.4c0.2,0.4,0.3,0.6,0.8,0.9
	l10.1,5.3c0.4,0.2,0.9,0,1.1-0.4c1.7-4.5,0.7-9.6-0.3-12.2c-1.1-2.7-1.4-3.3-1.4-4c0-1.3,0.3-1.4,1-2s1.9-1.1,3-1.1
	c7.4,0,11,3.5,17.5,9c3.8,3.2,9.2,6.3,15.6,8.7c0.6,0.2,0.8,1.2,0.2,1.6c-6.3,4.8-14.9,8.7-30,8.8c-0.5,0-0.8,0.4-0.8,0.9v12.2
	c0,0.5,0.4,0.9,0.9,0.9c26.5-0.2,42.7-10.4,50.4-23.8l0.9-1.5c0.1-0.1,0.1-0.3,0.1-0.5v-8.5c0-0.5-0.4-0.9-0.8-0.9h-5.6
	c-11.4,0-16.5-3.9-22.7-9C219.6,98.7,212,91.7,200.2,91.7z M156.9,126.8c-7.5,0-13.1,6.9-13.1,14.3c0,9.7,3.4,17.3,8.4,22.1
	c0.2,0.2,0.4,0.4,0.6,0.5c0.4,0.3,0.4,1,0,1.4c-4.9,3.5-9,10.3-9,18.5c0,7.9,2.9,14.6,6.9,19c1.6,1.8,3.4,3.3,5.2,4.6
	c0.4,0.3,0.5,1.1,0.1,1.5c-3.3,3.7-5.9,8.9-5.9,15c0,6.1,2.7,11.4,5.9,15.2c0,0,0.1,0.1,0.1,0.1c0.2,0.2,0,0.6-0.3,0.6
	c-0.2,0-0.2,0.2-0.2,0.4l2.7,12.3c0.1,0.5,0.6,0.8,1,0.6c1.6-0.5,5.6-1.8,10-4c0.2-0.1,0.5-0.1,0.7,0c4.4,2.1,8.3,3.4,10,4
	c0.4,0.1,0.9-0.1,1-0.6l2.7-12.3c0-0.2,0-0.4-0.2-0.4c-0.3,0-0.5-0.4-0.3-0.6c0,0,0.1-0.1,0.1-0.1c3.2-3.8,5.9-9.1,5.9-15.2
	c0-6.1-2.6-11.3-5.9-15c-0.4-0.4-0.3-1.2,0.1-1.5c1.8-1.3,3.5-2.8,5.2-4.6c4-4.4,6.9-11,6.9-19c0-8.2-4-15-9-18.5
	c-0.4-0.3-0.5-1,0-1.4c0.2-0.2,0.4-0.3,0.6-0.5c4.9-4.8,8.4-12.4,8.4-22.1c0-7.5-5.5-14.3-13.1-14.3c-4,0-7.4,2.2-9.6,4.8
	c-2.1,2.6-3.4,5.7-3.4,9.5c0-3.8-1.3-6.9-3.4-9.5C164.3,129,160.9,126.8,156.9,126.8z M158.4,146c-0.1-0.6,0.3-1.1,0.8-1.1h21.5
	c0.5,0,0.9,0.5,0.8,1.1c-0.5,2.7-1,5.4-2.4,6.8c-2,1.9-5.2,3.3-8.9,4.7c-0.2,0-0.4,0-0.5,0c-3.7-1.4-6.9-2.8-8.9-4.7
	C159.4,151.4,158.9,148.7,158.4,146z M169.7,173c0.2,0,0.3,0,0.5,0c4,1.4,7.5,2.7,9.5,4.1c2.4,1.7,3.2,2.4,3.2,6.6
	c0,4.5-1.1,6.7-3.2,9c-2.1,2.3-5.6,4.2-9.6,6.4c-0.1,0.1-0.2,0.1-0.4,0c-4-2.1-7.5-4.1-9.6-6.4c-2.1-2.3-3.2-4.5-3.2-9
	c0-4.2,0.8-4.9,3.2-6.6C162.2,175.7,165.7,174.5,169.7,173z M169.5,215.8c0.2-0.1,0.6-0.1,0.8,0c1.3,0.8,2.5,1.6,3.4,2.4
	c2.1,1.9,2.8,2.8,2.8,5.7c0,2.1-0.7,3.7-2.4,5.7c-1,1.2-2.3,2.4-3.8,3.6c-0.3,0.2-0.6,0.2-0.9,0c-1.5-1.1-2.8-2.4-3.8-3.6
	c-1.7-2-2.4-3.6-2.4-5.7c0-2.9,0.7-3.8,2.8-5.7C167,217.4,168.2,216.6,169.5,215.8z"/>
</svg>
