<?xml version="1.0" encoding="utf-8"?>
<!-- Generator: Adobe Illustrator 24.0.2, SVG Export Plug-In . SVG Version: 6.00 Build 0)  -->
<svg version="1.1" id="Слой_1" xmlns="http://www.w3.org/2000/svg" xmlns:xlink="http://www.w3.org/1999/xlink" x="0px" y="0px"
	 viewBox="0 0 60 53.6" style="enable-background:new 0 0 60 53.6;" xml:space="preserve">
<style type="text/css">
	.st0{fill:#FFFFFF;}
</style>
<path class="st0" d="M27.7,0c-6.4-0.1-11.8,3-16,6.5C7.6,10.1,4.7,14.2,3,16.9l-2.4,4h5.6c-2,2.6-4.5,6.1-6,9.4L0,30.7v4.6L3.5,34
	c1.5-0.6,3.7-1,5.9-1.5C8,37.5,7.7,42,8.2,44.8L8.6,47h3.6l0.7-0.8c1.2-1.2,5.2-2.9,7.2-3.8c2.9,4.9,7,8.2,10.1,9.5l3.7,1.6v-4
	c0-6.9,1.5-13,3.8-17.2c2.3-4.2,5.1-6.3,8.4-6.3h8.4c2.8,0,4.9,0.9,5.5,2.6v-5.3c0-2.5-0.9-9.3-7.7-10.3c-0.2-1.2-0.6-2.3-1.3-3.3
	C49.6,8,47.8,6.4,45.4,5C40.7,2.1,34.3,0,27.7,0z M27.7,5.2c5.4,0,11.1,1.9,14.9,4.2c1.9,1.2,3.4,2.5,4.1,3.4c0.7,1,0.6,1.2,0.6,1.2
	l-0.1,0.1v0.1l-3,6.9c-4.7,0.8-8.6,4-11.2,8.6c-2.3,4.1-3.3,9.5-3.8,15.2c-2.2-1.6-4.6-3.8-6-7L22.3,36l-2.2,0.7
	c-1.3,0.4-4.1,1.7-6.8,3.3c0-2.8,0.4-6.1,2.1-10.1l2-4.5l-4.9,0.8c-1,0.2-2.8,0.8-4.3,1.2c2.6-3.8,5.5-7.3,5.5-7.3l4-4.3h-6.8
	c1.4-1.8,2.3-3.4,4.3-5.1C18.7,7.5,23,5.2,27.7,5.2z M31.3,13c0,2.2,2,5.2,5.2,5.2c3.9,0,5.2-2.6,5.2-2.6L31.3,13z"/>
</svg>
