<?xml version="1.0" encoding="utf-8"?>
<!-- Generator: Adobe Illustrator 24.0.2, SVG Export Plug-In . SVG Version: 6.00 Build 0)  -->
<svg version="1.1" id="Слой_1" xmlns="http://www.w3.org/2000/svg" xmlns:xlink="http://www.w3.org/1999/xlink" x="0px" y="0px"
	 viewBox="0 0 388 330" style="enable-background:new 0 0 388 330;" xml:space="preserve">
<style type="text/css">
	.st0{fill:#FFFFFF;}
</style>
<path class="st0" d="M349.3,0c-1.1,0.1-2.4,0.2-3.3,0.9l-37.6,29.4L289.3,2.8c-1.2-1.8-2.9-2.4-5.1-1.9c-2.1,0.5-3.9,2.1-4.2,4.2
	l-5.2,39.7c-0.4,2.8,1.8,5.2,4.7,5.6c3,0.4,5.2-1.4,5.6-4.2l3.3-26.6l15.1,21c0.8,1.2,1.8,2.1,3.3,2.3c1.4,0.2,3.1-0.1,4.2-0.9
	L339,19.6l-8.9,27.1c-0.5,1.6-0.5,3.3,0.5,4.7c1,1.4,2.6,2,4.2,1.9l29.6-0.5l-28.6,17.7c-1.3,0.8-2.1,1.8-2.3,3.3
	c-0.2,1.5,0.4,3.1,1.4,4.2l24.4,27.1l-35.7-9.8c-1.4-0.4-3,0.1-4.2,0.9c-1.2,0.8-2.2,2.2-2.3,3.7l-1.8,21.9l-16-18.7
	c-1.8-2.2-4.9-2.3-7.1-0.5c-2.1,1.8-2.3,4.9-0.4,7l23.9,28.5c1.1,1.2,2.7,1.5,4.2,1.4c0.4-0.1,0.5,0.1,1,0c2-0.7,3.6-2.6,3.8-4.7
	l2.4-28l46.4,12.6c2.1,0.6,4.3,0.1,5.6-1.8c1.2-2,1.1-4.4-0.5-6l-31.9-36l38.9-23.8c2-1.2,3-3.4,2.4-5.6c-0.7-2.2-2.4-3.8-4.7-3.7
	l-41.2,0.5L354,6.6c0.7-2.2,0-4.3-1.8-5.6C351.2,0.3,350.4,0,349.3,0z M249,39.7l-8,2.4l-15.5,21.4L91.9,98
	c-4.3,1.1-11.7,8.1-9.3,16.8c-6.1-0.2-17.7-0.5-26.7,1.8c-5.7,1.5-23,6.5-20.7,15.4c3.6,14,22.7-7.9,32.8,11.2
	c-4.9,6.3-11.9,11.4-18.3,14c52.2,6.5,71.8,36.8,71.8,36.8h0.4c8.9,22.8,24.4,38,57.7,29.4c24.3-6.3,40.1-29.4,36.5-53.7v-0.5
	l-11.3-43.8l74.1-19.1l-14-53.2L253.2,56L249,39.7z M292.1,40.6l-1.8,21.4L278,60.7l9.9,32.6l7-5.6L308,99.5l1.4-16.8l23.5,6
	l-15.5-16.8l19.7-10.7l-22-0.9l8.9-18.2l-20.2,14.5L292.1,40.6z M161.7,106.5c3.5-0.9,7,1.2,8,4.7c1,3.5-1.2,7-4.7,7.9l-40.8,10.7
	l-3.3-12.6L161.7,106.5z M168.3,131.2c3.6-0.9,7.1,1.7,8,5.2c1,3.5-1.1,7-4.6,7.9L130.8,155l-3.3-13L168.3,131.2z M193.2,161.5
	c3.9,0.2,6.5,1.8,7.5,5.6c4.8,18.5-6.2,37.6-24.8,42.5c-18.6,4.9-34.1-0.7-38.9-19.1c-1.7-6.3,0.5-10.8,6.1-14.5
	c1.6,5.9,18.1,24.7,34.2,20.5c1.9-0.4,2.8-1,2.4-2.8c-1.8-6.6-13.6-7-21.6-24.3c2.3-0.7,4.6-1.2,7-1.8
	C176.6,164.6,186.6,161.2,193.2,161.5z M48.3,171.8c-1.6,0.1-3.2,0.5-4.7,0.9c-19,4.9-15.2,21.6-12.2,33.1
	c3.9,15-44,43.4-28.2,103.6c4,15.2,13.6,23.4,28.2,19.6c0,0,28.6-7.6,38.9-10.2c10.4-2.7,41.9-2.7,25.3-65.8
	c-8.9-33.8-0.1-37.3,7.5-39.2c7.6-2,8.1-5.8,7.1-9.8C107.5,193.9,72.3,169.7,48.3,171.8z M63.3,197.9c4.6,0.7,8.6,4.1,9.8,8.9
	c1.7,6.3-2,12.8-8.5,14.5c-6.4,1.7-13.3-2-15-8.4c-1.6-6.3,2.6-12.8,8.9-14.5C60.1,198,61.7,197.7,63.3,197.9z"/>
</svg>
